# xmcd
#
# Track frame offsets:
#	150
#	15658
#	32718
#	45902
#	59633
#	74467
#	88932
#	104416
#	118812
#	133937
#	150105
#	163004
#	175873
#
# Disc length: 2536 seconds
#
# Revision: 1
# Processed by: cddbd v1.5.2PL0 Copyright (c) Steve Scherf et al.
# Submitted via: audiograbber 1.83.01
#
DISCID=ad09e60d
DTITLE=Various Artist - CDX 630
DYEAR=2016
DGENRE=Country
TTITLE0=Brothers Osborne - 21 Summer 
TTITLE1=Sam Hunt - Make You Miss Me
TTITLE2=Jana Kramer - Said No One Ever
TTITLE3=Kane Brown - Used To Love You Sober (Radio Mix)
TTITLE4=Cyndi Lauper - Funnel Of Love
TTITLE5=Cyndi Lauper - Heartaches By The Number
TTITLE6=Lonestar - Never Enders
TTITLE7=Dennie Hall - Different Just the Same
TTITLE8=Casey Donahew - Feels This Right
TTITLE9=Brian Collins - Healing Highway
TTITLE10=Sierra Black - Heart On Ice
TTITLE11=Mike Smith - Little Bit Of Us
TTITLE12=Leslie Cours Mather - That Was The Whiskey
EXTD=
EXTT0=
EXTT1=
EXTT2=
EXTT3=
EXTT4=
EXTT5=
EXTT6=
EXTT7=
EXTT8=
EXTT9=
EXTT10=
EXTT11=
EXTT12=
PLAYORDER=
